# xmcd
#
# Track frame offsets:
#	150
#	14132
#	28209
#	42562
#	62264
#	79496
#	94411
#	108514
#	120835
#	139708
#	151956
#	169552
#	184687
#	200624
#	218836
#
# Disc length: 3132 seconds
#
# Revision: 1
# Processed by: cddbd v1.5.2PL0 Copyright (c) Steve Scherf et al.
# Submitted via: audiograbber 1.83.01
#
DISCID=d00c3a0f
DTITLE=Randy Travis - country artist series
DYEAR=1900
DGENRE=
TTITLE0=1982
TTITLE1=On The Other Hand
TTITLE2=Diggin Up Bones
TTITLE3=No Place Like Home
TTITLE4=Forever and ever amen
TTITLE5=I won't need you anymore
TTITLE6=Old 8 x10
TTITLE7=Too Gone Too Long
TTITLE8=I Told You So
TTITLE9=Honkt Tonk Moon
TTITLE10=Deeper Than The Holler
TTITLE11=Is It Still Over
TTITLE12=It's Just A Matter Of Time
TTITLE13=Hard Rock Bottom Of Your Heart
TTITLE14=He Walked On Water
EXTD=90027
EXTT0=
EXTT1=
EXTT2=
EXTT3=
EXTT4=
EXTT5=
EXTT6=
EXTT7=
EXTT8=
EXTT9=
EXTT10=
EXTT11=
EXTT12=
EXTT13=
EXTT14=
PLAYORDER=
